<svg width="76" height="70" viewBox="0 0 76 70" fill="none" xmlns="http://www.w3.org/2000/svg">
<rect width="76" height="70" fill="white"/>
<rect x="13" y="17" width="63" height="53" fill="#00FEFF"/>
<path d="M30.675 57.144C22.1069 57.144 13.5398 57.1461 4.97165 57.1419C3.0105 57.1409 1.39278 55.8793 1.064 54.1179C0.64099 51.8472 2.36446 49.7846 4.76642 49.7184C5.86479 49.6884 6.96526 49.7112 8.06468 49.7112C24.1528 49.7112 40.242 49.7122 56.3301 49.7101C57.8547 49.7101 59.1059 50.2504 59.908 51.5616C61.3801 53.9699 59.6483 57.0012 56.7448 57.1295C56.2223 57.1523 55.6977 57.1368 55.1742 57.1368C47.0081 57.1368 38.841 57.1368 30.675 57.1368C30.675 57.1399 30.675 57.1419 30.675 57.144ZM46.7422 51.2263C45.4909 51.2221 44.4753 52.226 44.4816 53.4607C44.4878 54.6674 45.4972 55.6641 46.7202 55.6713C47.9557 55.6785 48.9976 54.6478 48.986 53.4296C48.9756 52.2209 47.9662 51.2304 46.7422 51.2263ZM54.4967 53.4576C54.5041 52.2343 53.5251 51.2428 52.2948 51.2273C51.0425 51.2118 50.0122 52.2074 50.009 53.4359C50.0059 54.6695 51.0257 55.6775 52.2707 55.6723C53.4957 55.6661 54.4894 54.6767 54.4967 53.4576Z" fill="#001E42"/>
<path d="M22.8553 41.536C21.5245 38.9973 21.8711 34.6516 25.0877 31.9287C28.2215 29.2773 32.9804 29.271 36.0954 31.9381C39.2942 34.6765 40.0062 39.2819 37.7634 42.7727C35.373 46.4922 30.9491 47.3181 28.0006 46.2263C28.1084 46.1021 28.1964 45.9872 28.299 45.8858C29.5921 44.6045 30.8884 43.3264 32.1805 42.0441C32.9438 41.2866 32.9448 40.6221 32.1784 39.8604C31.2559 38.9435 30.3314 38.0296 29.3995 37.123C28.7273 36.469 28.0163 36.47 27.3399 37.1334C25.9651 38.4798 24.5987 39.8356 23.2291 41.1862C23.1202 41.2948 23.004 41.3973 22.8553 41.536Z" fill="#001E42"/>
<path d="M48.2122 11.7004C45.0668 14.799 41.9947 17.8251 38.8451 20.9268C39.866 21.2735 40.7989 21.5871 41.7287 21.9079C42.6795 22.236 43.3297 22.8683 43.6333 23.8225C43.847 24.4932 43.7799 25.1338 43.2595 25.6492C42.7339 26.1698 42.0533 26.2391 41.4052 25.9959C39.3676 25.2311 37.3321 24.457 35.3333 23.6011C34.3679 23.1881 33.8098 22.4088 33.792 21.2818C33.7585 19.1095 33.68 16.9372 33.5889 14.7659C33.5616 14.1118 33.7616 13.5964 34.2244 13.1411C36.3761 11.0246 38.5163 8.8958 40.6681 6.77937C41.4356 6.02491 42.4711 6.10977 43.4019 7.01016C44.4993 8.07096 45.5736 9.1566 46.6625 10.2257C47.1473 10.7017 47.6436 11.1602 48.2122 11.7004Z" fill="#001E42"/>
<path d="M27.9956 10.0503C28.1327 10.9662 28.2552 11.789 28.3861 12.6686C28.2311 12.6759 28.0134 12.6935 27.7956 12.6935C22.2995 12.6945 16.8025 12.6945 11.3064 12.6945C9.30024 12.6945 8.36102 13.626 8.36102 15.6089C8.36102 26.4746 8.36207 37.3392 8.36312 48.2049C8.36312 48.4274 8.36312 48.6489 8.36312 48.9139C7.45112 48.9139 6.57473 48.9139 5.63552 48.9139C5.63552 48.6934 5.63552 48.4916 5.63552 48.2898C5.63552 37.3382 5.63447 26.3866 5.63656 15.435C5.63761 12.2464 7.87414 10.0192 11.0897 10.0182C16.5857 10.0151 22.0828 10.0244 27.5788 10.0306C27.7495 10.0296 27.9202 10.0461 27.9956 10.0503Z" fill="#001E42"/>
<path d="M45.1163 22.5719C44.5519 21.4624 43.5865 20.6355 42.1709 20.1139C43.0201 19.3046 43.8064 18.576 44.5687 17.8246C47.2848 15.1473 49.9862 12.4534 52.7086 9.78223C54.1808 8.33851 55.9357 7.87693 57.8926 8.60966C59.8255 9.33307 60.8454 10.8037 60.9878 12.8291C61.0642 13.9085 60.792 14.9486 60.0842 15.7838C59.3041 16.7038 58.4214 17.538 57.4759 18.5201C56.9702 17.9695 56.544 17.4407 56.0519 16.9822C54.8593 15.8707 53.1567 15.5871 51.8437 16.2836C51.0438 16.708 50.4459 17.3527 50.0093 18.1465C49.9108 18.3256 49.7454 18.5025 49.5663 18.5988C48.6983 19.0655 48.0282 19.7155 47.5633 20.5776C47.4921 20.71 47.4146 20.8559 47.2994 20.9439C46.5916 21.4841 45.8744 22.0089 45.1163 22.5719Z" fill="#001E42"/>
<path d="M46.7454 25.0495C46.36 23.5478 47.6333 22.2655 49.2185 22.6505C49.0332 21.923 49.1201 21.302 49.6719 20.7421C50.2321 20.175 50.8593 20.0849 51.6215 20.2484C51.6215 20.1191 51.6393 20.0352 51.6184 19.9618C51.3608 19.0221 51.9231 18.398 52.6215 17.9364C53.1879 17.5618 54.0497 17.6404 54.6622 18.2065C55.8349 19.288 56.9741 20.4078 58.0767 21.5597C58.6578 22.1672 58.7667 23.0831 58.3824 23.6213C57.7961 24.444 57.2547 24.8425 56.281 24.6158C56.2192 24.6014 56.1511 24.6138 56.0852 24.6138C56.1511 26.4642 55.637 26.9765 53.6507 27.0645C53.7136 28.8715 52.8969 29.6746 51.2006 29.4314C51.2006 29.5307 51.1828 29.628 51.2037 29.717C51.4194 30.6464 50.9242 31.257 50.2132 31.7041C49.5054 32.1491 48.7369 31.9876 48.1725 31.4733C46.9663 30.3783 45.8061 29.2285 44.6942 28.0394C44.1706 27.4795 43.9968 26.7136 44.446 26.0223C44.9256 25.2844 45.5433 24.77 46.5464 25.0474C46.5935 25.0609 46.649 25.0495 46.7454 25.0495Z" fill="#001E42"/>
<path d="M55.7711 29.5215C55.7711 35.8728 55.7711 42.366 55.7711 48.9077C54.8894 48.9077 54.0162 48.9077 53.0979 48.9077C53.0885 48.709 53.0728 48.5248 53.0728 48.3396C53.0717 43.0811 53.0759 37.8226 53.0654 32.5642C53.0644 31.9867 53.3021 31.6576 53.7848 31.314C54.5209 30.7913 55.1376 30.1073 55.7711 29.5215Z" fill="#001E42"/>
<path d="M44.8563 30.8567C43.3287 32.3614 41.8272 33.8403 40.2922 35.3524C39.1791 32.1069 36.9615 29.8869 33.5815 28.7113C33.9438 28.3439 34.2632 28.0158 34.5867 27.6929C35.0527 27.2282 35.5354 26.778 35.9846 26.2978C36.2191 26.0474 36.4254 25.9967 36.7552 26.1312C37.9614 26.6259 39.1708 27.1196 40.4032 27.547C40.9832 27.7478 41.6198 27.7881 42.2271 27.9175C42.3737 27.9485 42.5926 28.0148 42.6324 28.1193C43.0103 29.1128 43.8009 29.7762 44.5213 30.4986C44.6417 30.6207 44.7548 30.748 44.8563 30.8567Z" fill="#001E42"/>
<path d="M30.3462 10.7656C30.5263 10.4272 30.6373 10.0225 30.8969 9.76172C33.011 7.63391 35.1543 5.53508 37.2851 3.42383C37.6338 3.0792 38.0515 2.96536 38.5269 3.00882C39.5802 3.10507 40.5509 4.05824 40.5509 5.10559C40.5509 5.48126 40.3949 5.95423 40.1373 6.21606C38.0201 8.36457 35.8632 10.4738 33.7177 12.5943C33.3418 12.9659 32.8864 13.0735 32.3712 12.9772C31.298 12.7765 30.4624 11.8378 30.3462 10.7656Z" fill="#001E42"/>
<path d="M22.2798 24.2227L13.4782 15.313L13.4688 27.9277L17.0958 26.4022L19.2967 30.9559L21.3668 29.9789L19.2088 25.5143L22.2798 24.2227Z" fill="#001E42"/>
</svg>
