<svg width="76" height="70" viewBox="0 0 76 70" fill="none" xmlns="http://www.w3.org/2000/svg">
<rect width="76" height="70" fill="white"/>
<rect x="13" y="17" width="63" height="53" fill="#00FEFF"/>
<path d="M59.3681 28.5397C60.544 28.5397 61.6624 28.5382 62.7809 28.5397C63.7672 28.5411 64.1161 28.8845 64.1233 29.8701C64.129 30.6129 64.1391 31.3557 64.119 32.0971C64.1003 32.7968 63.7572 33.1991 63.0637 33.2034C59.9769 33.2264 56.8886 33.2336 53.8018 33.1862C53.4802 33.1819 53.1672 32.781 52.8456 32.5712C52.6345 32.4333 52.4163 32.1948 52.1995 32.1934C49.0897 32.1661 45.9799 32.1646 42.8701 32.1833C42.6332 32.1847 42.28 32.337 42.1838 32.5238C41.8952 33.0856 41.4487 33.2278 40.8844 33.225C39.9038 33.2192 38.9203 33.2537 37.9412 33.2149C37.1429 33.1833 37.3051 33.725 37.2807 34.1818C37.2534 34.6646 37.3066 35.0123 37.9541 34.9879C39.0768 34.9448 40.2039 34.9922 41.3281 34.9692C41.8378 34.9591 42.1708 35.1373 42.4393 35.5827C42.7839 36.1531 43.239 36.6574 43.5894 37.2249C43.7545 37.4936 43.8679 37.8442 43.8693 38.1574C43.8851 47.3527 43.8851 56.548 43.8808 65.7433C43.8808 66.6945 43.5779 66.9876 42.6245 66.989C38.2441 66.9962 33.8651 66.9962 29.4847 66.9919C28.5759 66.9905 28.2557 66.6844 28.2557 65.7908C28.2499 56.571 28.2471 47.3527 28.2743 38.133C28.2758 37.758 28.5601 37.3686 28.7625 37.0152C28.998 36.6014 29.3411 36.245 29.5421 35.8183C29.868 35.1301 30.3691 34.9247 31.1027 34.962C32.1537 35.0152 33.209 34.9476 34.2614 34.9836C35.0137 35.0094 34.8802 34.5037 34.8945 34.0655C34.9089 33.6172 34.9376 33.1847 34.2628 33.2178C33.5464 33.2523 32.8271 33.225 32.1092 33.2221C31.5694 33.2206 31.1458 33.0669 30.8974 32.5109C30.8213 32.3399 30.4954 32.1833 30.2829 32.1819C26.8601 32.1617 23.4373 32.1603 20.016 32.1847C19.792 32.1862 19.5695 32.4276 19.3469 32.5597C18.9823 32.7781 18.6219 33.1833 18.2543 33.189C15.2393 33.2393 12.2242 33.2192 9.20775 33.2135C8.51286 33.212 8.12808 32.8342 8.10654 32.1531C8.07926 31.2925 8.07496 30.4276 8.11516 29.5684C8.14818 28.8629 8.51429 28.5497 9.2336 28.5411C10.2386 28.5282 11.2451 28.5181 12.2486 28.544C12.7454 28.5569 12.9608 28.373 12.9234 27.8802C12.912 27.7379 12.9105 27.5914 12.9263 27.4491C12.9938 26.8644 12.7626 26.6503 12.1568 26.6604C10.1467 26.6905 8.13669 26.6719 6.12523 26.6704C5.86249 26.6704 5.59831 26.6704 5.33557 26.6704C4.1597 26.6675 4.00464 26.5167 4.00321 25.3558C4.00177 24.5181 3.99603 23.6791 4.00464 22.8414C4.01326 22.0081 4.23723 21.7754 5.0757 21.7725C7.56527 21.7639 10.0534 21.7682 12.543 21.7682C17.5207 21.7682 22.4998 21.7667 27.4775 21.7739C28.5715 21.7754 28.7079 21.9276 28.7094 23.034C28.7108 23.896 28.7166 24.7581 28.7036 25.6201C28.6907 26.4678 28.4868 26.6675 27.6225 26.669C23.8408 26.6733 20.0591 26.6661 16.2788 26.679C15.9658 26.6805 15.413 26.7408 15.3857 26.8658C15.2809 27.34 15.3197 27.8543 15.3742 28.3471C15.3829 28.429 15.7303 28.5239 15.9227 28.5282C16.7124 28.5497 17.5063 28.4908 18.2888 28.5612C18.6248 28.5914 19.0813 28.7839 19.2306 29.0468C19.479 29.4836 19.7676 29.5799 20.2098 29.5784C23.512 29.5698 26.8156 29.5698 30.1178 29.5799C30.5328 29.5813 30.7998 29.4994 31.0252 29.0741C31.1674 28.8069 31.6268 28.5641 31.947 28.5598C35.0094 28.5224 38.0733 28.5224 41.1371 28.5626C41.4544 28.567 41.8995 28.8213 42.0531 29.0914C42.2915 29.508 42.5729 29.5799 42.9806 29.5784C46.043 29.5669 49.1069 29.5756 52.1693 29.544C52.4062 29.5411 52.6374 29.2695 52.8757 29.1316C53.2246 28.9305 53.5634 28.6086 53.9338 28.567C54.7135 28.4793 55.5117 28.5195 56.2999 28.5454C56.7752 28.5612 56.9575 28.3672 56.9259 27.9132C56.9159 27.771 56.9101 27.6244 56.9274 27.4822C57.0063 26.8629 56.7637 26.6546 56.1233 26.6589C52.2942 26.6862 48.4651 26.6733 44.636 26.6719C43.43 26.6719 43.3065 26.5497 43.3008 25.3716C43.2979 24.5814 43.2965 23.7911 43.3022 23.0009C43.3094 21.9248 43.4659 21.7725 44.5685 21.771C51.2935 21.7696 58.0185 21.7696 64.7449 21.7696C65.5102 21.7696 66.2769 21.7753 67.0421 21.771C67.6925 21.7682 68.0098 22.0713 67.9998 22.7365C67.9854 23.7179 68.0041 24.7006 67.994 25.6819C67.9868 26.4219 67.7456 26.6647 66.9948 26.6675C64.7694 26.6762 62.5425 26.6704 60.3171 26.6719C59.3021 26.6719 59.2992 26.6733 59.3121 27.6905C59.3136 27.9506 59.3451 28.2078 59.3681 28.5397ZM36.0446 45.9964C36.0446 45.9978 36.0446 45.9978 36.0446 45.9993C37.5521 45.9993 39.0582 46.0036 40.5657 45.9978C41.4702 45.995 41.7301 45.7493 41.7358 44.8585C41.7473 43.3513 41.7473 41.8427 41.7373 40.3355C41.7315 39.4821 41.4645 39.2077 40.6203 39.2048C37.5822 39.1962 34.5442 39.1976 31.5062 39.2077C30.6591 39.2105 30.415 39.4749 30.4107 40.3485C30.4021 41.8556 30.4007 43.3642 30.4107 44.8714C30.4165 45.7248 30.6806 45.9878 31.5249 45.9921C33.0295 46.0007 34.537 45.9964 36.0446 45.9964ZM36.0402 55.4374C37.6397 55.4374 39.2405 55.4431 40.8399 55.4345C41.6569 55.4302 41.7401 55.3253 41.7401 54.4403C41.7401 53.5394 41.6569 53.4245 40.8643 53.4216C37.6641 53.4159 34.4652 53.4345 31.2664 53.4116C30.5442 53.4072 30.3748 53.7305 30.3935 54.3771C30.4107 54.9834 30.4193 55.4633 31.242 55.446C32.84 55.413 34.4408 55.4374 36.0402 55.4374ZM36.0417 59.9043C37.6411 59.9043 39.2405 59.9101 40.8399 59.9014C41.6497 59.8971 41.7373 59.7865 41.7387 58.9014C41.7401 57.9905 41.6626 57.8857 40.8629 57.8842C37.6641 57.877 34.4638 57.877 31.265 57.8842C30.4653 57.8857 30.3992 57.979 30.4035 58.9115C30.4079 59.7894 30.4997 59.9014 31.3124 59.9043C32.8902 59.9086 34.4652 59.9043 36.0417 59.9043ZM36.0733 50.9719C37.6971 50.9719 39.3223 50.9504 40.9462 50.982C41.677 50.9963 41.7487 50.5941 41.7487 50.0237C41.7487 49.4432 41.7229 48.9949 40.939 48.9992C37.6899 49.0222 34.4423 49.0222 31.1932 48.9992C30.3935 48.9935 30.4079 49.4676 30.3978 50.0337C30.3878 50.6127 30.471 50.9992 31.1989 50.9849C32.8228 50.9489 34.448 50.9734 36.0733 50.9719ZM48.8801 22.9664C47.8765 22.9664 46.8715 22.9679 45.8679 22.9664C45.3424 22.965 45.0624 23.2078 45.071 23.7495C45.0753 23.988 45.0667 24.2279 45.0696 24.4664C45.0811 25.3227 45.2046 25.4492 46.0861 25.452C47.8076 25.4578 49.529 25.4549 51.2505 25.4535C52.5627 25.4535 52.6072 25.4061 52.5957 24.0684C52.5943 23.9722 52.5929 23.8773 52.5929 23.7811C52.5972 23.2136 52.3129 22.9564 51.7487 22.9621C50.7925 22.9736 49.8363 22.9664 48.8801 22.9664ZM23.2005 25.4549C24.1078 25.4549 25.0152 25.4592 25.9226 25.4535C26.8357 25.4477 26.9319 25.3443 26.9377 24.4046C26.9391 24.261 26.9248 24.1173 26.9391 23.975C27.008 23.2768 26.7123 22.9679 25.9973 22.9751C24.2787 22.9909 22.5587 22.9679 20.8401 22.965C19.4589 22.9621 19.4029 23.0225 19.4245 24.4334C19.4259 24.5052 19.4273 24.577 19.4273 24.6489C19.4202 25.215 19.6872 25.4707 20.2629 25.4592C21.2421 25.4391 22.2213 25.4535 23.2005 25.4549ZM36.1465 61.5192C34.9922 61.479 34.0374 62.3382 33.9843 63.4632C33.9297 64.6342 34.8271 65.604 35.9957 65.6385C37.1745 65.6729 38.1364 64.7735 38.1594 63.6155C38.1809 62.479 37.2965 61.558 36.1465 61.5192ZM14.0404 25.2437C14.5788 25.2293 15.0211 24.7696 15.0239 24.2236C15.0254 23.646 14.5458 23.1848 13.9672 23.2064C13.426 23.2265 12.9651 23.6977 12.9694 24.225C12.9737 24.7782 13.4791 25.2595 14.0404 25.2437ZM59.0336 24.2035C59.0293 23.6417 58.5469 23.2049 57.9482 23.2193C57.4083 23.2337 56.9747 23.7006 56.992 24.2495C57.0092 24.7969 57.4571 25.2394 57.997 25.2423C58.5641 25.2466 59.0379 24.7724 59.0336 24.2035ZM65.1527 25.2451C65.7112 25.248 66.1965 24.7538 66.1836 24.1963C66.1706 23.6604 65.7141 23.2136 65.1699 23.2064C64.6301 23.1992 64.1663 23.6403 64.1448 24.1805C64.1218 24.7509 64.587 25.2423 65.1527 25.2451ZM7.85529 24.2308C7.86103 23.6446 7.40447 23.192 6.82299 23.2049C6.28603 23.2179 5.82946 23.6819 5.8309 24.215C5.83234 24.7523 6.28029 25.225 6.80864 25.2451C7.38293 25.2681 7.84955 24.8141 7.85529 24.2308ZM11.436 24.2193C11.4389 23.6532 11.0067 23.2136 10.4425 23.2064C9.87537 23.1992 9.43747 23.6216 9.42311 24.1891C9.40876 24.794 9.8524 25.2509 10.4454 25.2408C11.001 25.2308 11.4331 24.7854 11.436 24.2193ZM62.5928 24.261C62.61 23.692 62.2037 23.2437 61.638 23.2078C61.058 23.1705 60.5799 23.6302 60.5784 24.2265C60.577 24.7854 61.0163 25.2365 61.5691 25.2437C62.1348 25.2495 62.5741 24.827 62.5928 24.261Z" fill="#001E42"/>
<path d="M16.3966 3.00113C19.5079 3.00113 22.6206 2.99969 25.7318 3.00113C27.0685 3.00256 27.347 3.27986 27.347 4.58876C27.3456 9.139 27.347 13.6892 27.3456 18.2409C27.3456 19.5211 27.0613 19.8214 25.7935 19.8214C19.4978 19.8271 13.2021 19.8271 6.90642 19.8242C5.72481 19.8242 5.40607 19.5038 5.40607 18.3358C5.40177 13.7367 5.40177 9.139 5.4032 4.53991C5.4032 3.27842 5.69179 3.00256 6.98826 3.00113C10.1239 2.99969 13.2596 3.00113 16.3966 3.00113ZM16.3636 5.15197C16.3636 5.15484 16.3636 5.15628 16.3636 5.15915C13.9214 5.15915 11.4807 5.14622 9.03992 5.1649C7.88559 5.17352 7.38165 5.69219 7.37591 6.85166C7.36298 9.86888 7.36298 12.8861 7.37447 15.9047C7.37878 17.172 7.91574 17.705 9.16483 17.7064C13.9286 17.7122 18.6909 17.7122 23.4547 17.7064C24.8675 17.705 25.4045 17.1605 25.4073 15.7424C25.4131 12.8688 25.4131 9.99531 25.4059 7.12034C25.403 5.65484 24.8919 5.15628 23.4016 5.15341C21.0556 5.14766 18.7096 5.15197 16.3636 5.15197Z" fill="#001E42"/>
<path d="M55.75 3.00094C58.8828 3.00094 62.017 2.99806 65.1498 3.00238C66.2782 3.00381 66.62 3.32708 66.6228 4.4492C66.6329 9.08996 66.6329 13.7322 66.6257 18.3729C66.6243 19.4879 66.2739 19.8255 65.1526 19.8269C58.8383 19.8298 52.5239 19.8298 46.2095 19.8255C44.9561 19.8241 44.6618 19.5137 44.6604 18.235C44.6575 13.6876 44.6575 9.14168 44.6604 4.59431C44.6618 3.28829 44.9532 3.00525 46.277 3.00381C49.4356 2.9995 52.5928 3.00094 55.75 3.00094ZM55.6524 17.7077C57.9984 17.7077 60.3443 17.7106 62.6903 17.7063C64.1333 17.7034 64.6645 17.2034 64.6702 15.7781C64.6831 12.8557 64.6831 9.93478 64.6702 7.01239C64.6645 5.65896 64.1433 5.15322 62.7851 5.15178C58.0213 5.14747 53.2576 5.14747 48.4938 5.15322C47.1499 5.15465 46.6273 5.67907 46.6244 7.0282C46.6173 9.95058 46.6173 12.8715 46.6244 15.7939C46.6273 17.1761 47.1557 17.7005 48.544 17.7048C50.913 17.7134 53.2834 17.7077 55.6524 17.7077Z" fill="#001E42"/>
</svg>
