<svg width="76" height="70" viewBox="0 0 76 70" fill="none" xmlns="http://www.w3.org/2000/svg">
<rect width="76" height="70" fill="white"/>
<rect x="13" y="17" width="63" height="53" fill="#00FEFF"/>
<path d="M56.7815 13.6213H56.7451V13.9815H56.7815V13.6213Z" fill="#001E42"/>
<path d="M41.7553 32.451V31.6986L40.5247 29.8096L39.4925 30.466L40.5288 32.0588V32.451H30.1376V28.493C30.425 28.1768 30.5909 27.7766 30.5909 27.3444C30.5909 26.3959 29.8097 25.6235 28.8503 25.6235C28.8503 25.6235 28.8503 25.6235 28.8462 25.6235C28.3807 25.6235 27.9435 25.8036 27.6157 26.1278C27.2837 26.452 27.1016 26.8842 27.1016 27.3484C27.1016 27.7886 27.2756 28.1888 27.5549 28.497V30.1338C28.0447 30.9662 28.6398 31.7426 29.3482 32.443C30.3319 33.4155 31.4693 34.1838 32.704 34.7321H41.9658C43.1923 34.1878 44.3217 33.4235 45.3013 32.459H41.7553V32.451ZM29.2187 27.7126C29.1701 27.7606 29.1134 27.7966 29.0527 27.8246H28.6357C28.4455 27.7446 28.3119 27.5605 28.3119 27.3444C28.3119 27.2043 28.3686 27.0723 28.4657 26.9722C28.5669 26.8722 28.7005 26.8201 28.8381 26.8201C29.1296 26.8201 29.3684 27.0563 29.3684 27.3444C29.3765 27.4845 29.3199 27.6165 29.2187 27.7126Z" fill="#001E42"/>
<path d="M44.4916 42.8521C43.6496 43.1722 42.7874 43.4363 41.9089 43.6404V45.6695C41.6256 45.9776 41.4596 46.3698 41.4556 46.794V46.8501C41.4718 47.2983 41.662 47.7145 41.9939 48.0227C42.3097 48.3148 42.7226 48.4749 43.1557 48.4749C43.1679 48.4749 43.1841 48.4749 43.1962 48.4749H43.2083C43.6455 48.4829 44.0989 48.3108 44.4308 47.9946C44.7587 47.6785 44.9449 47.2543 44.949 46.802V46.778C44.9368 46.3538 44.7628 45.9696 44.4956 45.6775V42.8521H44.4916ZM43.5767 47.1342C43.4796 47.2263 43.3541 47.2823 43.2245 47.2743H43.1962H43.1679C43.0383 47.2783 42.9169 47.2343 42.8197 47.1462C42.7266 47.0582 42.67 46.9381 42.6659 46.802C42.6659 46.67 42.7185 46.5459 42.8157 46.4539C42.9047 46.3658 43.0221 46.3178 43.1557 46.3138H43.1638H43.2002C43.4917 46.3058 43.7103 46.5219 43.7265 46.798C43.7265 46.9261 43.6698 47.0462 43.5767 47.1342Z" fill="#001E42"/>
<path d="M36.2945 44.1449C35.4201 44.1009 34.5579 43.9968 33.7118 43.8447V45.6536C33.4204 45.9618 33.2504 46.362 33.2463 46.7942V46.8502C33.2625 47.2985 33.4528 47.7147 33.7847 48.0228C33.9588 48.1829 34.1652 48.303 34.3838 48.379V52.297C34.3838 52.4571 34.2543 52.5891 34.0802 52.5931H1V53.7937H34.1004C34.9343 53.7857 35.6022 53.1094 35.5982 52.293V48.375C36.2459 48.1429 36.7235 47.5306 36.7357 46.8062V46.7822C36.7235 46.362 36.5576 45.9898 36.2945 45.6977V44.1449ZM35.0153 47.2745H34.987H34.9586C34.9546 47.2745 34.9465 47.2745 34.9424 47.2745C34.6834 47.2745 34.4648 47.0703 34.4567 46.7982C34.4567 46.6661 34.5093 46.5421 34.6064 46.45C34.6955 46.362 34.8129 46.314 34.9465 46.31H34.9546H34.991C35.2906 46.302 35.501 46.5181 35.5172 46.7942C35.5091 47.0663 35.2906 47.2905 35.0153 47.2745Z" fill="#001E42"/>
<path d="M2.28026 46.566C6.8302 46.57 11.3761 46.57 15.926 46.562C16.9178 46.562 17.2295 46.2578 17.2295 45.2853C17.2295 42.7481 17.2295 40.2108 17.2295 37.6735H20.9213V39.5825C20.9213 40.623 21.7754 41.4674 22.8279 41.4674H25.5157V45.6655C25.2324 45.9737 25.0664 46.3659 25.0624 46.7901V46.8461C25.0786 47.2943 25.2688 47.7106 25.6007 48.0187C25.9165 48.3109 26.3294 48.4709 26.7625 48.4709C26.7747 48.4709 26.7909 48.4709 26.803 48.4709H26.8151C26.8232 48.4709 26.8313 48.4709 26.8394 48.4709C27.2888 48.4709 27.7138 48.3028 28.0336 47.9907C28.3615 47.6745 28.5477 47.2503 28.5517 46.7981V46.7741C28.5396 46.3499 28.3655 45.9657 28.0984 45.6735V41.9356C26.6735 41.1953 25.3376 40.2788 24.1151 39.2023H23.2205V38.3619C22.3624 37.5054 21.5973 36.585 20.9213 35.6125V36.4649H17.2335C17.2335 29.9736 17.2295 23.4784 17.2214 16.9871C17.2214 16.6669 17.104 16.3068 16.9299 16.0306C16.5656 15.4463 16.092 14.9301 15.7358 14.3458C15.4565 13.8895 15.1124 13.7055 14.5821 13.7175C13.7401 13.7335 4.56333 13.7415 3.96422 13.7095C3.2032 13.6734 2.68101 13.8815 2.34503 14.5899C2.13453 15.0261 1.77831 15.3943 1.53543 15.8185C1.32493 16.1827 1.02943 16.5829 1.02943 16.9671C0.997044 26.4198 1.00109 35.8766 1.00514 45.3334C1.00514 46.2498 1.33708 46.566 2.28026 46.566ZM26.4265 46.4539C26.5156 46.3659 26.633 46.3178 26.7666 46.3138H26.7747H26.8111C27.0945 46.3058 27.3211 46.522 27.3373 46.7981C27.3333 46.9262 27.2807 47.0462 27.1835 47.1343C27.0864 47.2263 26.969 47.2823 26.8313 47.2743H26.803H26.7747C26.6492 47.2783 26.5196 47.2343 26.4265 47.1463C26.3334 47.0582 26.2768 46.9382 26.2727 46.8021C26.2768 46.67 26.3294 46.546 26.4265 46.4539ZM9.04446 45.1773C7.83006 45.1413 6.89902 44.1488 6.95569 42.9482C7.00832 41.7956 8.00007 40.9111 9.20233 40.9552C10.3965 40.9952 11.3154 41.9396 11.2911 43.1042C11.2668 44.2888 10.2669 45.2133 9.04446 45.1773ZM14.0721 39.2903C12.4124 39.2983 10.7487 39.2943 9.08898 39.2943C7.45359 39.2943 5.8182 39.2983 4.17877 39.2943C3.33678 39.2903 3.23963 39.1783 3.23558 38.2738C3.23154 37.3173 3.30035 37.2213 4.13019 37.2213C7.45359 37.2133 10.7729 37.2133 14.0964 37.2213C14.9262 37.2213 15.0071 37.3293 15.0071 38.2658C15.0071 39.1743 14.914 39.2863 14.0721 39.2903ZM3.23963 19.2322C3.24368 18.3358 3.4987 18.0636 4.37712 18.0596C7.53051 18.0476 10.6879 18.0476 13.8413 18.0556C14.7197 18.0596 14.995 18.3398 15.0031 19.2162C15.0152 20.761 15.0152 22.3098 15.0031 23.8586C14.995 24.771 14.7278 25.0231 13.7887 25.0271C12.2221 25.0311 10.6596 25.0271 9.09303 25.0271V25.0231C7.52646 25.0231 5.96393 25.0271 4.39736 25.0191C3.51894 25.0151 3.24773 24.747 3.23963 23.8706C3.23154 22.3258 3.23154 20.777 3.23963 19.2322ZM4.05328 28.1047C7.42526 28.1287 10.8013 28.1287 14.1733 28.1047C14.9869 28.1007 15.0152 28.5609 15.0152 29.1532C15.0152 29.7375 14.9383 30.1497 14.1814 30.1377C12.4933 30.1057 10.8094 30.1257 9.12137 30.1257C7.43335 30.1257 5.74534 30.1017 4.06138 30.1377C3.3044 30.1537 3.21939 29.7575 3.22749 29.1612C3.23963 28.5849 3.22344 28.1007 4.05328 28.1047ZM4.13019 32.635C7.45359 32.659 10.777 32.639 14.0964 32.643C14.9181 32.643 15.0071 32.763 15.0071 33.6875C15.0071 34.596 14.9221 34.704 14.0721 34.708C12.4124 34.716 10.7487 34.712 9.08898 34.712C7.42931 34.712 5.76558 34.688 4.1059 34.724C3.25178 34.744 3.24368 34.2478 3.22344 33.6275C3.2032 32.9631 3.38131 32.631 4.13019 32.635Z" fill="#001E42"/>
<path d="M43.4027 17.4673C41.4596 17.4673 39.5166 17.4633 37.5736 17.4713C36.9178 17.4753 36.7437 17.6514 36.7356 18.2957C36.7275 18.9401 36.7316 19.5884 36.7356 20.2327C36.7356 21.1251 36.8571 21.2452 37.776 21.2452C37.9824 21.2452 38.1889 21.2452 38.3913 21.2452C39.0956 21.2452 39.8 21.2492 40.5043 21.2492H40.5286V24.7029C40.2979 24.787 40.0874 24.9151 39.9093 25.0911C39.5773 25.4153 39.3952 25.8475 39.3952 26.3118C39.3952 27.1602 40.0266 27.8645 40.8443 28.0046L41.8766 29.5854L42.9048 28.9291L42.1235 27.7325C42.2085 27.6724 42.2935 27.6084 42.3704 27.5324C42.7024 27.2082 42.8845 26.776 42.8845 26.3118C42.8845 25.5754 42.4109 24.9511 41.7551 24.707V21.2492C42.2045 21.2492 42.6497 21.2492 43.0991 21.2412C43.18 21.2412 43.2529 21.2452 43.3177 21.2532H47.6085C47.7826 21.2532 47.9526 21.2532 48.1267 21.2532C47.7016 19.8805 47.0094 18.5959 46.0743 17.4713C45.1838 17.4713 44.2932 17.4673 43.4027 17.4673ZM38.9256 20.1447C38.5127 20.1286 38.1646 19.7645 38.1646 19.3523C38.1646 18.94 38.5208 18.5839 38.9377 18.5719C39.3911 18.5599 39.7473 18.912 39.7433 19.3643C39.7392 19.8125 39.3749 20.1647 38.9256 20.1447ZM41.5163 26.6839C41.4151 26.784 41.2815 26.836 41.1439 26.836C40.8524 26.836 40.6136 26.5999 40.6136 26.3158C40.6136 26.1757 40.6703 26.0436 40.7674 25.9436C40.8686 25.8435 41.0022 25.7915 41.1398 25.7915C41.4313 25.7915 41.6701 26.0276 41.6701 26.3158C41.6742 26.4558 41.6175 26.5879 41.5163 26.6839ZM41.7632 20.1407C41.3018 20.1487 40.9536 19.7965 40.9658 19.3322C40.9779 18.896 41.318 18.5719 41.7592 18.5759C42.2004 18.5799 42.5364 18.92 42.5364 19.3563C42.5364 19.7925 42.1964 20.1367 41.7632 20.1407ZM44.5685 20.1447C44.1313 20.1567 43.7346 19.7845 43.7346 19.3603C43.7306 18.9521 44.0908 18.5919 44.5118 18.5759C44.9652 18.5599 45.3376 18.916 45.3376 19.3603C45.3336 19.7805 44.9895 20.1326 44.5685 20.1447Z" fill="#001E42"/>
<path d="M37.8286 14.8178C37.8286 15.7182 38.0755 15.9664 38.9985 15.9664C40.8525 15.9664 42.7064 15.9664 44.5645 15.9664C43.7549 15.298 42.8603 14.7497 41.913 14.3335C41.5285 14.3335 41.148 14.3335 40.7634 14.3335C40.0348 14.3335 39.6178 14.1014 39.4519 13.5772C38.9216 13.4771 38.3791 13.4171 37.8327 13.3931C37.8286 13.8693 37.8286 14.3415 37.8286 14.8178Z" fill="#001E42"/>
<path d="M39.6381 5.04103C39.8486 4.7929 40.1805 4.66884 40.6703 4.66484C42.5769 4.64883 44.4795 4.66084 46.3861 4.66084V4.65683C48.2158 4.65683 50.0455 4.65283 51.8792 4.65683C53.041 4.66084 53.4417 5.04503 53.4417 6.1736C53.4458 8.39071 53.4458 10.6038 53.4417 12.8209C53.4417 12.897 53.4336 12.965 53.4296 13.037C53.972 13.7814 54.4659 14.5618 54.895 15.3742C54.9354 15.2101 54.9516 15.006 54.9516 14.7499C54.9516 11.2401 54.9516 7.73438 54.9516 4.22462C54.9516 3.21611 54.733 3 53.6927 3C51.2639 3 48.8351 3 46.4063 3C43.9573 3 41.5123 3 39.0632 3C38.0513 3 37.8286 3.21211 37.8286 4.1846C37.8286 4.42872 37.8286 4.67284 37.8286 4.92097C38.4358 4.93297 39.039 4.97299 39.6381 5.04103Z" fill="#001E42"/>
<path d="M49.9481 12.0644C42.9896 5.18492 31.6714 5.18492 24.7129 12.0644C17.7544 18.9438 17.7585 30.1335 24.717 37.0129C30.8942 43.12 40.5042 43.8003 47.4546 39.062L63.9218 57.023C65.3953 58.4797 67.9941 58.2716 69.7266 56.5628C71.4592 54.8499 71.6697 52.2806 70.1922 50.8239L51.9195 34.6918C56.8257 27.8123 56.1699 18.2155 49.9481 12.0644ZM46.7502 33.8473C41.5566 38.9819 33.1085 38.9819 27.9149 33.8473C22.7213 28.7127 22.7213 20.3605 27.9149 15.226C33.1085 10.0914 41.5566 10.0914 46.7502 15.226C51.9438 20.3646 51.9438 28.7167 46.7502 33.8473Z" fill="#001E42"/>
</svg>
