<svg width="76" height="70" viewBox="0 0 76 70" fill="none" xmlns="http://www.w3.org/2000/svg">
<rect width="76" height="70" fill="white"/>
<rect x="13" y="17" width="63" height="53" fill="#00FEFF"/>
<path d="M28.8623 55.8557L27.4257 55.214C24.979 54.1225 22.9739 52.2207 21.7429 49.828L21.2429 48.8541C21.1643 48.7007 21.0906 48.5423 21.017 48.3838C19.6033 48.3838 18.1871 48.3812 16.7734 48.3812C13.9865 48.3812 11.2022 48.3914 8.41542 48.3787C6.98139 48.371 6.81642 48.1742 6.8088 46.6123C6.80119 44.9559 6.91794 44.7897 8.33166 44.7846C12.2479 44.7769 16.1642 44.7769 20.0805 44.7795C19.9409 43.3838 20.0272 41.9037 20.3698 40.4364C19.1693 40.4364 17.9713 40.4339 16.7708 40.4339C13.9434 40.4339 11.1134 40.3904 8.28597 40.4518C6.83165 40.4824 6.81642 39.6287 6.78596 38.5499C6.75297 37.3996 7.05246 36.8219 8.32912 36.8321C12.8165 36.8628 17.3038 36.85 21.7912 36.8475C22.4891 35.6486 23.4028 34.5162 24.5653 33.5141C25.012 33.1307 25.4815 32.7779 25.9714 32.461C25.8191 32.4916 25.6465 32.5095 25.4409 32.5044C22.5704 32.4482 19.6972 32.4865 16.8267 32.4865C13.9561 32.4865 11.083 32.4456 8.21237 32.507C6.92302 32.5351 6.77835 31.8449 6.79611 30.8147C6.81388 29.8101 6.78596 28.964 8.20222 28.9743C13.9459 29.0177 19.6871 29.0152 25.4308 28.9743C26.8166 28.964 26.8623 29.7641 26.8623 30.7969C26.8623 31.326 26.8267 31.7708 26.611 32.075C27.8572 31.3669 29.2151 30.871 30.6313 30.6077C30.6288 26.4998 30.6237 22.3894 30.6186 18.2815C29.8471 17.4814 29.1009 14.9328 28.7735 13.6956C28.6567 13.256 28.7024 12.7882 28.908 12.3817C29.2963 11.6174 29.9689 10.3623 30.4537 9.86383C30.507 9.81014 30.5577 9.75646 30.611 9.70278C30.611 9.69767 30.611 9.69256 30.611 9.68744C30.611 9.13019 30.4105 8.50646 30.1161 8.02845C29.4968 7.01873 28.6922 6.12149 28.0831 5.10667C27.6059 4.31423 27.0196 3.99726 26.1186 4.01515C24.1313 4.0535 22.1389 3.9717 20.1541 4.04838L13.6236 4.04583C11.7632 3.98192 9.89766 4.10207 8.03978 4.00748C6.74281 3.94102 5.85702 4.30656 5.28087 5.531C4.923 6.2902 4.31894 6.92415 3.90269 7.66035C3.54482 8.29174 3.04228 8.98448 3.03974 9.6491C2.99151 26.0525 2.99659 42.4533 3.00674 58.8567C3.00674 60.4441 3.57274 60.9911 5.17935 60.9937C12.9231 61.0039 20.6642 61.0014 28.408 60.9886C30.0933 60.986 30.6288 60.4646 30.6288 58.7723C30.6288 57.9671 30.6288 57.1644 30.6288 56.3592C30.0222 56.2365 29.4334 56.0704 28.8623 55.8557ZM6.81388 13.5883C6.82403 12.0341 7.25551 11.5637 8.75044 11.5586C14.121 11.5382 19.4916 11.5382 24.8623 11.5535C26.3572 11.5586 26.8267 12.0469 26.8369 13.5653C26.8597 16.2467 26.8572 18.9282 26.8369 21.6123C26.8242 23.1972 26.3673 23.6317 24.7683 23.6394C22.1033 23.6496 19.4409 23.6419 16.7759 23.6419C16.7759 23.6394 16.7759 23.6394 16.7759 23.6368C14.1109 23.6368 11.4484 23.6471 8.78344 23.6343C7.29104 23.6266 6.82403 23.1588 6.81388 21.6404C6.79611 18.9538 6.79865 16.2723 6.81388 13.5883ZM16.6921 58.5806C14.6261 58.5193 13.0398 56.7938 13.1363 54.7105C13.2276 52.7089 14.9155 51.1803 16.9586 51.2519C18.9942 51.3209 20.5576 52.9594 20.517 54.9789C20.4739 57.0417 18.7734 58.6445 16.6921 58.5806Z" fill="#001E42"/>
<path d="M24.8474 46.9729C23.4413 44.2377 23.8068 39.5547 27.2078 36.6201C30.5225 33.7622 35.553 33.7571 38.8475 36.6303C42.2308 39.5802 42.9846 44.5419 40.6115 48.3047C38.0835 52.3129 33.4058 53.2024 30.289 52.0266C30.4033 51.8936 30.4972 51.7684 30.6038 51.6585C31.9718 50.2781 33.3424 48.9003 34.7079 47.5199C35.515 46.7045 35.515 45.9862 34.7053 45.1656C33.7307 44.1789 32.751 43.1922 31.7662 42.2157C31.0555 41.5102 30.3043 41.5128 29.5885 42.2259C28.1342 43.6779 26.69 45.1375 25.2408 46.5946C25.1266 46.7121 25.0047 46.8221 24.8474 46.9729Z" fill="#001E42"/>
<path d="M51.6598 14.8231C48.3324 18.1615 45.0861 21.4233 41.7562 24.7643C42.8374 25.1375 43.8222 25.4749 44.807 25.8226C45.812 26.1753 46.4999 26.8578 46.8222 27.8854C47.0481 28.6089 46.977 29.299 46.4263 29.8537C45.8704 30.4136 45.1496 30.4902 44.4643 30.227C42.3095 29.4038 40.1572 28.568 38.0429 27.6477C37.0226 27.2029 36.4313 26.3619 36.4135 25.1503C36.378 22.8088 36.2942 20.4698 36.1978 18.1283C36.1698 17.4228 36.3805 16.8681 36.8704 16.3773C39.147 14.0971 41.4085 11.8016 43.6851 9.52143C44.4973 8.70855 45.5912 8.80057 46.576 9.76938C47.7359 10.912 48.873 12.0828 50.0253 13.2331C50.5329 13.7469 51.0583 14.2402 51.6598 14.8231Z" fill="#001E42"/>
<path d="M48.3857 26.5382C47.7893 25.3419 46.769 24.4523 45.2715 23.8899C46.17 23.0183 46.9999 22.2335 47.807 21.4232C50.6802 18.5372 53.5355 15.6359 56.4137 12.7575C57.9696 11.2008 59.8274 10.7049 61.896 11.4947C63.9391 12.2744 65.0178 13.8593 65.1701 16.0397C65.2513 17.2028 64.962 18.325 64.2133 19.2223C63.3884 20.2141 62.4544 21.1113 61.4544 22.1722C60.9188 21.5791 60.4696 21.0091 59.9493 20.5157C58.6878 19.3194 56.8883 19.0126 55.5 19.7616C54.6548 20.2192 54.0228 20.9145 53.5609 21.7683C53.4568 21.96 53.2817 22.1517 53.0939 22.2565C52.1751 22.7601 51.467 23.4605 50.9746 24.3884C50.8984 24.5316 50.8172 24.6875 50.6954 24.7821C49.9467 25.3649 49.1878 25.9324 48.3857 26.5382Z" fill="#001E42"/>
<path d="M50.1089 29.2071C49.7003 27.589 51.048 26.2086 52.7257 26.6227C52.5302 25.8379 52.6216 25.1708 53.2054 24.5649C53.7968 23.954 54.4617 23.8568 55.2663 24.0332C55.2663 23.8926 55.2841 23.8032 55.2638 23.7239C54.9922 22.7117 55.5861 22.0394 56.3247 21.5409C56.9237 21.137 57.8349 21.2214 58.4821 21.8323C59.7232 22.998 60.9263 24.2045 62.0912 25.4468C62.7055 26.1012 62.8197 27.0879 62.4136 27.6682C61.7943 28.5552 61.2207 28.9847 60.1902 28.7393C60.1242 28.7239 60.0531 28.7367 59.9821 28.7367C60.0506 30.7306 59.5075 31.2827 57.4085 31.3773C57.4744 33.3252 56.6115 34.1892 54.8171 33.9284C54.8171 34.0358 54.7993 34.1406 54.8196 34.2352C55.048 35.2372 54.5226 35.8942 53.7714 36.3747C53.0226 36.8553 52.2104 36.6789 51.614 36.1268C50.3399 34.9458 49.1114 33.7086 47.9363 32.4279C47.383 31.8246 47.1977 30.999 47.6749 30.2551C48.1825 29.4601 48.8348 28.9054 49.8957 29.2045C49.949 29.2198 50.0074 29.2071 50.1089 29.2071Z" fill="#001E42"/>
<path d="M48.1115 35.4644C46.4972 37.085 44.9084 38.6801 43.284 40.3084C42.1063 36.8115 39.7611 34.4189 36.1875 33.1535C36.5708 32.7573 36.9083 32.4046 37.251 32.0569C37.7434 31.5559 38.2535 31.0702 38.7307 30.5538C38.9794 30.2829 39.1977 30.2292 39.5454 30.3749C40.8221 30.9066 42.0987 31.4409 43.4033 31.901C44.0175 32.1183 44.6901 32.1617 45.3322 32.2998C45.4871 32.333 45.718 32.4046 45.7612 32.517C46.1597 33.5881 46.9972 34.3013 47.7587 35.0809C47.883 35.2087 48.0049 35.3468 48.1115 35.4644Z" fill="#001E42"/>
<path d="M32.7661 13.8159C32.9565 13.4503 33.0732 13.0158 33.3499 12.7346C35.5859 10.4416 37.8525 8.17937 40.1037 5.90432C40.4718 5.53366 40.9159 5.41096 41.4185 5.45697C42.5327 5.56178 43.5581 6.58683 43.5581 7.71669C43.5581 8.12057 43.3931 8.63182 43.1215 8.91301C40.8829 11.229 38.6012 13.5015 36.3321 15.7867C35.9337 16.1881 35.4514 16.3031 34.9083 16.2008C33.7737 15.9836 32.8905 14.9713 32.7661 13.8159Z" fill="#001E42"/>
</svg>
